<svg class="diagram-root" style="background: #f5f6f6" xmlns="http://www.w3.org/2000/svg" xmlns:xlink="http://www.w3.org/1999/xlink"><style>.diagram-root { font-family: "Helvetica Neue", sans-serif; font-size: 12px; } .t { overflow: visible; } .t-bg { y: 40; fill: #fff;   } .th { fill: #005aa0;   } .tht { fill: #fff; font-size: 14px;  } .tf { fill: #323c46; overflow: visible; } .tf.pk { fill: #005aa0; font-weight: bold; } .tf.fk { font-weight: bold; } .ty { fill: #adb1b5; font-weight: normal; text-anchor: end; } .r { fill: transparent; stroke: #c3c3c3; stroke-width: 1; } .l { stroke: 1; } .i { fill: #c2c7ce; stroke: #c2c7ce; } .i.ix { fill: #afb3b6; stroke: #000; } .fa { fill: transparent; overflow: visible; } .fa .bg.hover { fill: #f7f7f7; } .c { cy: 12; r: 4; stroke: #d2d2dc; fill: #d2d2dc; } .hr { fill: transparent; stroke: #323c46; stroke-opacity: 0.035; stroke-width: 13; } .dc { stroke: #fa5a3c; fill: #fa5a3c; } .x { stroke: white; stroke-width: 1; } .hl .th { fill: #1b9bff; } .hl .tht {  } .fhl .bg { fill: #e7f4ff; } .fhls .bg {  } .r.hl { stroke: #1b9bff; } .dim { opacity: 0.25; }</style><g class="drawing-wrapper" transform="translate(-5, -4.329999999999998) scale(1,1)"><g class="rs"><path d="M 176.16 94 m -1, 0 a 1,1 0 1,0 2,0 a 1,1 0 1,0 -2,0 M 176.16 94 m -0.5, 0 a 0.5,0.5 0 1,0 1,0 a 0.5,0.5 0 1,0 -1,0  M176.16 94 L176.16 94 188.16 94 M182.16 100 L182.16 100 182.16 88 M188.16 94 Q 204.37 94, 220.58 105.17 T 253 116.33 M 265 116.33 m -1, 0 a 1,1 0 1,0 2,0 a 1,1 0 1,0 -2,0 M 265 116.33 m -0.5, 0 a 0.5,0.5 0 1,0 1,0 a 0.5,0.5 0 1,0 -1,0  M265 116.33 L265 116.33 253 116.33 M 265 122.33 m -1, 0 a 1,1 0 1,0 2,0 a 1,1 0 1,0 -2,0 M 265 122.33 m -0.5, 0 a 0.5,0.5 0 1,0 1,0 a 0.5,0.5 0 1,0 -1,0  M265 122.33 L265 122.33 258 116.33 265 110.33 M 265 110.33 m -1, 0 a 1,1 0 1,0 2,0 a 1,1 0 1,0 -2,0 M 265 110.33 m -0.5, 0 a 0.5,0.5 0 1,0 1,0 a 0.5,0.5 0 1,0 -1,0 " id="h3899210081" class="r"></path><path d="M 287.11 302 m -1, 0 a 1,1 0 1,0 2,0 a 1,1 0 1,0 -2,0 M 287.11 302 m -0.5, 0 a 0.5,0.5 0 1,0 1,0 a 0.5,0.5 0 1,0 -1,0  M287.11 302 L287.11 302 299.11 302 M293.11 308 L293.11 308 293.11 296 M299.11 302 C 349.11 302, 415.68000000000006 194, 188.16 194 M 176.16 194 m -1, 0 a 1,1 0 1,0 2,0 a 1,1 0 1,0 -2,0 M 176.16 194 m -0.5, 0 a 0.5,0.5 0 1,0 1,0 a 0.5,0.5 0 1,0 -1,0  M176.16 194 L176.16 194 188.16 194 M 176.16 200 m -1, 0 a 1,1 0 1,0 2,0 a 1,1 0 1,0 -2,0 M 176.16 200 m -0.5, 0 a 0.5,0.5 0 1,0 1,0 a 0.5,0.5 0 1,0 -1,0  M176.16 200 L176.16 200 183.16 194 176.16 188 M 176.16 188 m -1, 0 a 1,1 0 1,0 2,0 a 1,1 0 1,0 -2,0 M 176.16 188 m -0.5, 0 a 0.5,0.5 0 1,0 1,0 a 0.5,0.5 0 1,0 -1,0 " id="h4061715988" class="r"></path><path d="M 448 458 m -1, 0 a 1,1 0 1,0 2,0 a 1,1 0 1,0 -2,0 M 448 458 m -0.5, 0 a 0.5,0.5 0 1,0 1,0 a 0.5,0.5 0 1,0 -1,0  M448 458 L448 458 436 458 M442 464 L442 464 442 452 M436 458 C 408.65853779412015 458, 407.45853779412016 376, 438 376 M 450 376 m -1, 0 a 1,1 0 1,0 2,0 a 1,1 0 1,0 -2,0 M 450 376 m -0.5, 0 a 0.5,0.5 0 1,0 1,0 a 0.5,0.5 0 1,0 -1,0  M450 376 L450 376 438 376 M 450 382 m -1, 0 a 1,1 0 1,0 2,0 a 1,1 0 1,0 -2,0 M 450 382 m -0.5, 0 a 0.5,0.5 0 1,0 1,0 a 0.5,0.5 0 1,0 -1,0  M450 382 L450 382 443 376 450 370 M 450 370 m -1, 0 a 1,1 0 1,0 2,0 a 1,1 0 1,0 -2,0 M 450 370 m -0.5, 0 a 0.5,0.5 0 1,0 1,0 a 0.5,0.5 0 1,0 -1,0 " id="h3985500158" class="r"></path><path d="M 449 94.33 m -1, 0 a 1,1 0 1,0 2,0 a 1,1 0 1,0 -2,0 M 449 94.33 m -0.5, 0 a 0.5,0.5 0 1,0 1,0 a 0.5,0.5 0 1,0 -1,0  M449 94.33 L449 94.33 437 94.33 M443 100.33 L443 100.33 443 88.33 M437 94.33 C 387 94.33, 386.4 326, 438 326 M 450 326 m -1, 0 a 1,1 0 1,0 2,0 a 1,1 0 1,0 -2,0 M 450 326 m -0.5, 0 a 0.5,0.5 0 1,0 1,0 a 0.5,0.5 0 1,0 -1,0  M450 326 L450 326 438 326 M 450 332 m -1, 0 a 1,1 0 1,0 2,0 a 1,1 0 1,0 -2,0 M 450 332 m -0.5, 0 a 0.5,0.5 0 1,0 1,0 a 0.5,0.5 0 1,0 -1,0  M450 332 L450 332 443 326 450 320 M 450 320 m -1, 0 a 1,1 0 1,0 2,0 a 1,1 0 1,0 -2,0 M 450 320 m -0.5, 0 a 0.5,0.5 0 1,0 1,0 a 0.5,0.5 0 1,0 -1,0 " id="h3331816357" class="r"></path><path d="M 355 141.32999999999998 m -1, 0 a 1,1 0 1,0 2,0 a 1,1 0 1,0 -2,0 M 355 141.32999999999998 m -0.5, 0 a 0.5,0.5 0 1,0 1,0 a 0.5,0.5 0 1,0 -1,0  M355 141.32999999999998 L355 141.32999999999998 367 141.32999999999998 M 355 147.32999999999998 m -1, 0 a 1,1 0 1,0 2,0 a 1,1 0 1,0 -2,0 M 355 147.32999999999998 m -0.5, 0 a 0.5,0.5 0 1,0 1,0 a 0.5,0.5 0 1,0 -1,0  M355 147.32999999999998 L355 147.32999999999998 362 141.32999999999998 355 135.32999999999998 M 355 135.32999999999998 m -1, 0 a 1,1 0 1,0 2,0 a 1,1 0 1,0 -2,0 M 355 135.32999999999998 m -0.5, 0 a 0.5,0.5 0 1,0 1,0 a 0.5,0.5 0 1,0 -1,0  M367 141.32999999999998 Q 384.5 141.32999999999998, 402 117.83 T 437 94.33 M 449 94.33 m -1, 0 a 1,1 0 1,0 2,0 a 1,1 0 1,0 -2,0 M 449 94.33 m -0.5, 0 a 0.5,0.5 0 1,0 1,0 a 0.5,0.5 0 1,0 -1,0  M449 94.33 L449 94.33 437 94.33 M443 100.33 L443 100.33 443 88.33" id="h2451324670" class="r"></path><path d="M 27 332 m -1, 0 a 1,1 0 1,0 2,0 a 1,1 0 1,0 -2,0 M 27 332 m -0.5, 0 a 0.5,0.5 0 1,0 1,0 a 0.5,0.5 0 1,0 -1,0  M27 332 L27 332 15 332 M 27 338 m -1, 0 a 1,1 0 1,0 2,0 a 1,1 0 1,0 -2,0 M 27 338 m -0.5, 0 a 0.5,0.5 0 1,0 1,0 a 0.5,0.5 0 1,0 -1,0  M27 338 L27 338 20 332 27 326 M 27 326 m -1, 0 a 1,1 0 1,0 2,0 a 1,1 0 1,0 -2,0 M 27 326 m -0.5, 0 a 0.5,0.5 0 1,0 1,0 a 0.5,0.5 0 1,0 -1,0  M15 332 C -35 332, -35 94, 15 94 M 27 94 m -1, 0 a 1,1 0 1,0 2,0 a 1,1 0 1,0 -2,0 M 27 94 m -0.5, 0 a 0.5,0.5 0 1,0 1,0 a 0.5,0.5 0 1,0 -1,0  M27 94 L27 94 15 94 M21 100 L21 100 21 88" id="h2628434651" class="r"></path><path d="M 27 357 m -1, 0 a 1,1 0 1,0 2,0 a 1,1 0 1,0 -2,0 M 27 357 m -0.5, 0 a 0.5,0.5 0 1,0 1,0 a 0.5,0.5 0 1,0 -1,0  M27 357 L27 357 15 357 M 27 363 m -1, 0 a 1,1 0 1,0 2,0 a 1,1 0 1,0 -2,0 M 27 363 m -0.5, 0 a 0.5,0.5 0 1,0 1,0 a 0.5,0.5 0 1,0 -1,0  M27 363 L27 363 20 357 27 351 M 27 351 m -1, 0 a 1,1 0 1,0 2,0 a 1,1 0 1,0 -2,0 M 27 351 m -0.5, 0 a 0.5,0.5 0 1,0 1,0 a 0.5,0.5 0 1,0 -1,0  M15 357 C -14.335227211589068 357, -14.935227211589067 445, 16 445 M 28 445 m -1, 0 a 1,1 0 1,0 2,0 a 1,1 0 1,0 -2,0 M 28 445 m -0.5, 0 a 0.5,0.5 0 1,0 1,0 a 0.5,0.5 0 1,0 -1,0  M28 445 L28 445 16 445 M22 451 L22 451 22 439" id="h2231485435" class="r"></path></g><g class="hrs"></g><g class="ts"><svg width="149.16" height="200" x="27" y="37" id="h907613820" class="t"><rect height="40" width="149.16" class="th"></rect><text x="13" y="25" class="tht">films</text><rect height="160" width="149.16" class="t-bg" y="40"></rect><text x="13" y="61" class="tf pk">id</text><path d="M7,14A2,2 0 0,1 5,12A2,2 0 0,1 7,10A2,2 0 0,1 9,12A2,2 0 0,1 7,14M12.65,10C11.83,7.67 9.61,6 7, 6A6, 6 0 0, 0 1, 12A6, 6 0 0, 0 7, 18C9.61, 18 11.83, 16.33 12.65, 14H17V18H21V14H23V10H12.65Z" class="i pk" transform="translate(121.16, 48) scale(0.65)"></path><text x="13" y="86" class="tf">name</text><text x="13" y="111" class="tf">description</text><text x="13" y="136" class="tf">duration</text><text x="13" y="161" class="tf fk">film_rating_MPA_id</text><text x="13" y="186" class="tf">release_date</text></svg><svg width="98.11" height="100" x="189" y="245" id="h3353276062" class="t"><rect height="40" width="98.11" class="th"></rect><text x="13" y="25" class="tht">rating_MPA</text><rect height="60" width="98.11" class="t-bg" y="40"></rect><text x="13" y="61" class="tf pk">id</text><path d="M7,14A2,2 0 0,1 5,12A2,2 0 0,1 7,10A2,2 0 0,1 9,12A2,2 0 0,1 7,14M12.65,10C11.83,7.67 9.61,6 7, 6A6, 6 0 0, 0 1, 12A6, 6 0 0, 0 7, 18C9.61, 18 11.83, 16.33 12.65, 14H17V18H21V14H23V10H12.65Z" class="i pk" transform="translate(70.11, 48) scale(0.65)"></path><text x="13" y="86" class="tf">name</text></svg><svg width="106.16" height="100" x="448" y="401" id="h1756404015" class="t"><rect height="40" width="106.16" class="th"></rect><text x="13" y="25" class="tht">friend_status</text><rect height="60" width="106.16" class="t-bg" y="40"></rect><text x="13" y="61" class="tf pk">id</text><path d="M7,14A2,2 0 0,1 5,12A2,2 0 0,1 7,10A2,2 0 0,1 9,12A2,2 0 0,1 7,14M12.65,10C11.83,7.67 9.61,6 7, 6A6, 6 0 0, 0 1, 12A6, 6 0 0, 0 7, 18C9.61, 18 11.83, 16.33 12.65, 14H17V18H21V14H23V10H12.65Z" class="i pk" transform="translate(78.16, 48) scale(0.65)"></path><text x="13" y="86" class="tf">name</text></svg><svg width="90" height="175" x="449" y="37.33" id="h2948373614" class="t"><rect height="40" width="90" class="th"></rect><text x="13" y="25" class="tht">users</text><rect height="135" width="90" class="t-bg" y="40"></rect><text x="13" y="61" class="tf pk">id</text><path d="M7,14A2,2 0 0,1 5,12A2,2 0 0,1 7,10A2,2 0 0,1 9,12A2,2 0 0,1 7,14M12.65,10C11.83,7.67 9.61,6 7, 6A6, 6 0 0, 0 1, 12A6, 6 0 0, 0 7, 18C9.61, 18 11.83, 16.33 12.65, 14H17V18H21V14H23V10H12.65Z" class="i pk" transform="translate(62, 48) scale(0.65)"></path><text x="13" y="86" class="tf">name</text><text x="13" y="111" class="tf">login</text><text x="13" y="136" class="tf">email</text><text x="13" y="161" class="tf">birthday</text></svg><svg width="90" height="125" x="265" y="34.33" id="h242094811" class="t"><rect height="40" width="90" class="th"></rect><text x="13" y="25" class="tht">film_likes</text><rect height="85" width="90" class="t-bg" y="40"></rect><text x="13" y="61" class="tf pk">id</text><path d="M7,14A2,2 0 0,1 5,12A2,2 0 0,1 7,10A2,2 0 0,1 9,12A2,2 0 0,1 7,14M12.65,10C11.83,7.67 9.61,6 7, 6A6, 6 0 0, 0 1, 12A6, 6 0 0, 0 7, 18C9.61, 18 11.83, 16.33 12.65, 14H17V18H21V14H23V10H12.65Z" class="i pk" transform="translate(62, 48) scale(0.65)"></path><text x="13" y="86" class="tf fk">film_id</text><text x="13" y="111" class="tf fk">user_id</text></svg><svg width="130.72" height="150" x="450" y="244" id="h3814618133" class="t"><rect height="40" width="130.72" class="th"></rect><text x="13" y="25" class="tht">user_friends</text><rect height="110" width="130.72" class="t-bg" y="40"></rect><text x="13" y="61" class="tf pk">id</text><path d="M7,14A2,2 0 0,1 5,12A2,2 0 0,1 7,10A2,2 0 0,1 9,12A2,2 0 0,1 7,14M12.65,10C11.83,7.67 9.61,6 7, 6A6, 6 0 0, 0 1, 12A6, 6 0 0, 0 7, 18C9.61, 18 11.83, 16.33 12.65, 14H17V18H21V14H23V10H12.65Z" class="i pk" transform="translate(102.72, 48) scale(0.65)"></path><text x="13" y="86" class="tf fk">user_id</text><text x="13" y="111" class="tf">other_user_id</text><text x="13" y="136" class="tf fk">friend_status_id</text></svg><svg width="98.37" height="125" x="27" y="250" id="h1001868982" class="t"><rect height="40" width="98.37" class="th"></rect><text x="13" y="25" class="tht">film_genres</text><rect height="85" width="98.37" class="t-bg" y="40"></rect><text x="13" y="61" class="tf pk">id</text><path d="M7,14A2,2 0 0,1 5,12A2,2 0 0,1 7,10A2,2 0 0,1 9,12A2,2 0 0,1 7,14M12.65,10C11.83,7.67 9.61,6 7, 6A6, 6 0 0, 0 1, 12A6, 6 0 0, 0 7, 18C9.61, 18 11.83, 16.33 12.65, 14H17V18H21V14H23V10H12.65Z" class="i pk" transform="translate(70.37, 48) scale(0.65)"></path><text x="13" y="86" class="tf fk">film_id</text><text x="13" y="111" class="tf fk">genre_id</text></svg><svg width="90" height="100" x="28" y="388" id="h1632618054" class="t"><rect height="40" width="90" class="th"></rect><text x="13" y="25" class="tht">genres</text><rect height="60" width="90" class="t-bg" y="40"></rect><text x="13" y="61" class="tf pk">id</text><path d="M7,14A2,2 0 0,1 5,12A2,2 0 0,1 7,10A2,2 0 0,1 9,12A2,2 0 0,1 7,14M12.65,10C11.83,7.67 9.61,6 7, 6A6, 6 0 0, 0 1, 12A6, 6 0 0, 0 7, 18C9.61, 18 11.83, 16.33 12.65, 14H17V18H21V14H23V10H12.65Z" class="i pk" transform="translate(62, 48) scale(0.65)"></path><text x="13" y="86" class="tf">name</text></svg></g></g><text class="qdbd-link" x="10" y="20">www.quickdatabasediagrams.com</text></svg>